<svg width="36" height="14" viewBox="0 0 36 14" fill="none" xmlns="http://www.w3.org/2000/svg">
<path d="M5.85547 14H3.79004V5.70312C3.79004 4.71289 3.81348 3.92773 3.86035 3.34766C3.72559 3.48828 3.55859 3.64355 3.35938 3.81348C3.16602 3.9834 2.50977 4.52246 1.39062 5.43066L0.353516 4.12109L4.13281 1.15039H5.85547V14ZM18.6717 14H9.96172V12.4355L13.2752 9.10449C14.2537 8.10254 14.9012 7.39355 15.2176 6.97754C15.5398 6.55566 15.7742 6.16016 15.9207 5.79102C16.0672 5.42188 16.1404 5.02637 16.1404 4.60449C16.1404 4.02441 15.9646 3.56738 15.6131 3.2334C15.2674 2.89941 14.7869 2.73242 14.1717 2.73242C13.6795 2.73242 13.202 2.82324 12.7391 3.00488C12.282 3.18652 11.7518 3.51465 11.1482 3.98926L10.032 2.62695C10.7469 2.02344 11.4412 1.5957 12.115 1.34375C12.7889 1.0918 13.5066 0.96582 14.2684 0.96582C15.4637 0.96582 16.4217 1.2793 17.1424 1.90625C17.8631 2.52734 18.2234 3.36523 18.2234 4.41992C18.2234 5 18.118 5.55078 17.907 6.07227C17.702 6.59375 17.3826 7.13281 16.949 7.68945C16.5213 8.24023 15.8064 8.9873 14.8045 9.93066L12.5721 12.0928V12.1807H18.6717V14ZM35.4096 14H32.975L28.9408 8.18164L27.7016 9.19238V14H25.601V1.15039H27.7016V7.28516C28.2758 6.58203 28.8471 5.90527 29.4154 5.25488L32.8871 1.15039H35.2777C33.0336 3.78711 31.4252 5.66504 30.4525 6.78418L35.4096 14Z" fill="black"/>
</svg>
