<svg width="37" height="15" viewBox="0 0 37 15" fill="none" xmlns="http://www.w3.org/2000/svg">
<path d="M9.50098 14H0.791016V12.4355L4.10449 9.10449C5.08301 8.10254 5.73047 7.39355 6.04688 6.97754C6.36914 6.55566 6.60352 6.16016 6.75 5.79102C6.89648 5.42188 6.96973 5.02637 6.96973 4.60449C6.96973 4.02441 6.79395 3.56738 6.44238 3.2334C6.09668 2.89941 5.61621 2.73242 5.00098 2.73242C4.50879 2.73242 4.03125 2.82324 3.56836 3.00488C3.11133 3.18652 2.58105 3.51465 1.97754 3.98926L0.861328 2.62695C1.57617 2.02344 2.27051 1.5957 2.94434 1.34375C3.61816 1.0918 4.33594 0.96582 5.09766 0.96582C6.29297 0.96582 7.25098 1.2793 7.97168 1.90625C8.69238 2.52734 9.05273 3.36523 9.05273 4.41992C9.05273 5 8.94727 5.55078 8.73633 6.07227C8.53125 6.59375 8.21191 7.13281 7.77832 7.68945C7.35059 8.24023 6.63574 8.9873 5.63379 9.93066L3.40137 12.0928V12.1807H9.50098V14ZM15.3211 5.97559C16.616 5.97559 17.6414 6.31836 18.3973 7.00391C19.1531 7.68945 19.5311 8.62402 19.5311 9.80762C19.5311 11.1787 19.1004 12.251 18.2391 13.0244C17.3836 13.792 16.1648 14.1758 14.5828 14.1758C13.1473 14.1758 12.0193 13.9443 11.199 13.4814V11.6094C11.6736 11.8789 12.2186 12.0869 12.8338 12.2334C13.449 12.3799 14.0203 12.4531 14.5477 12.4531C15.4793 12.4531 16.1883 12.2451 16.6746 11.8291C17.1609 11.4131 17.4041 10.8037 17.4041 10.001C17.4041 8.46582 16.4256 7.69824 14.4686 7.69824C14.1932 7.69824 13.8533 7.72754 13.449 7.78613C13.0447 7.83887 12.6902 7.90039 12.3855 7.9707L11.4627 7.42578L11.9549 1.15039H18.6346V2.9873H13.7742L13.4842 6.16895C13.6893 6.13379 13.9383 6.09277 14.2312 6.0459C14.5301 5.99902 14.8934 5.97559 15.3211 5.97559ZM36.4096 14H33.975L29.9408 8.18164L28.7016 9.19238V14H26.601V1.15039H28.7016V7.28516C29.2758 6.58203 29.8471 5.90527 30.4154 5.25488L33.8871 1.15039H36.2777C34.0336 3.78711 32.4252 5.66504 31.4525 6.78418L36.4096 14Z" fill="black"/>
</svg>
